<svg width="60" height="60" viewBox="0 0 60 60" fill="none" xmlns="http://www.w3.org/2000/svg">
<path d="M8.36914 57.17H38.7197V58.6679C38.7197 59.4036 37.8976 59.9999 36.8835 59.9999H10.2053C9.19119 59.9999 8.36914 59.4036 8.36914 58.6679V57.17Z" fill="#754E29"/>
<path d="M53.5781 25.6465H39.6052V29.6398H51.7432C53.2632 29.6398 54.4954 30.5337 54.4954 31.6364V43.35C54.4954 44.4527 53.2632 45.3466 51.7432 45.3466H39.6052V49.3399H53.5781C57.1248 49.3399 60.0001 47.2541 60.0001 44.6811V30.3053C60.0001 27.7322 57.1248 25.6465 53.5781 25.6465Z" fill="#754E29"/>
<g filter="url(#filter0_i_37_516)">
<path d="M33.9366 57.9752H11.9351C5.34361 57.9752 0 54.0987 0 49.3169V19.009C0 17.9056 1.23317 17.011 2.75425 17.011H43.1174C44.6385 17.011 45.8716 17.9056 45.8716 19.009V49.3171C45.8716 54.0988 40.528 57.9752 33.9366 57.9752Z" fill="#FAF6ED"/>
</g>
<g filter="url(#filter1_i_37_516)">
<path d="M30.0699 41.2257C33.0454 39.0671 32.2631 34.9999 28.3226 32.1413C24.3821 29.2826 18.7755 28.7151 15.8 30.8737C12.8245 33.0322 13.6068 37.0995 17.5473 39.9581C21.4879 42.8167 27.0944 43.3843 30.0699 41.2257Z" fill="#FFFBF8"/>
</g>
<path d="M30.0709 38.4173C27.0952 40.576 21.4887 40.0084 17.5481 37.1497C15.8041 35.8846 14.6802 34.3829 14.2253 32.9146C13.4567 35.0868 14.6427 37.8507 17.5481 39.9583C21.4887 42.817 27.0952 43.3845 30.0709 41.2259C31.7297 40.0225 32.2192 38.226 31.6463 36.3765C31.3724 37.1505 30.8525 37.8501 30.0709 38.4173Z" fill="#754E29"/>
<path d="M21.3775 32.0898C23.5295 33.6509 23.7335 35.978 23.7414 36.0792C23.8833 39.936 29.1891 40.1876 29.4146 40.1962C29.8797 40.2143 30.2599 40.5021 30.2636 40.8394C30.2675 41.1765 29.8932 41.4351 29.4278 41.4168C26.9431 41.3197 22.2047 40.0737 22.0578 36.0543C22.0572 36.0534 21.862 34.0155 20.0782 32.8264C19.1581 32.2146 17.9402 31.9218 16.4575 31.9561C15.9938 31.9667 15.5833 31.7016 15.5401 31.3645C15.4966 31.027 15.837 30.7448 16.3003 30.7342C18.2602 30.689 19.9034 31.1 21.1847 31.9557C21.2506 31.9995 21.3149 32.0444 21.3775 32.0898Z" fill="#754E29"/>
<path d="M33.4599 0.420793C30.7448 -0.629383 26.8022 0.350727 23.5444 2.64183C20.2867 0.350727 16.3441 -0.629383 13.629 0.420793C10.0523 1.80424 9.96122 6.18464 13.4257 10.2047C15.4919 12.6022 18.3558 14.3295 21.09 15.0403C21.835 15.3 22.6647 15.4158 23.5444 15.3974C24.4243 15.4158 25.2539 15.3 25.9988 15.0403C28.7329 14.3295 31.5969 12.6022 33.6632 10.2047C37.1276 6.18464 37.0366 1.80424 33.4599 0.420793Z" fill="#FF624B"/>
<path d="M14.7444 50.7849C16.2133 50.7849 17.4041 49.9211 17.4041 48.8555C17.4041 47.7899 16.2133 46.926 14.7444 46.926C13.2755 46.926 12.0847 47.7899 12.0847 48.8555C12.0847 49.9211 13.2755 50.7849 14.7444 50.7849Z" fill="#754E29"/>
<path d="M20.8845 55.3938C22.3534 55.3938 23.5442 54.53 23.5442 53.4644C23.5442 52.3988 22.3534 51.5349 20.8845 51.5349C19.4156 51.5349 18.2249 52.3988 18.2249 53.4644C18.2249 54.53 19.4156 55.3938 20.8845 55.3938Z" fill="#754E29"/>
<path d="M20.3908 56.6889C14.0255 56.6889 8.86556 52.9457 8.86556 48.328V17.6541C8.86556 17.4282 8.92174 17.2124 9.02016 17.011H2.65969C1.19075 17.011 0 17.8748 0 18.9404V49.6144C0 54.232 5.15999 57.9753 11.5252 57.9753H34.3464C36.6038 57.9753 38.7078 57.5027 40.4858 56.6889H20.3908Z" fill="#754E29"/>
<defs>
<filter id="filter0_i_37_516" x="0" y="17.011" width="45.8716" height="44.9641" filterUnits="userSpaceOnUse" color-interpolation-filters="sRGB">
<feFlood flood-opacity="0" result="BackgroundImageFix"/>
<feBlend mode="normal" in="SourceGraphic" in2="BackgroundImageFix" result="shape"/>
<feColorMatrix in="SourceAlpha" type="matrix" values="0 0 0 0 0 0 0 0 0 0 0 0 0 0 0 0 0 0 127 0" result="hardAlpha"/>
<feOffset dy="4"/>
<feGaussianBlur stdDeviation="2"/>
<feComposite in2="hardAlpha" operator="arithmetic" k2="-1" k3="1"/>
<feColorMatrix type="matrix" values="0 0 0 0 0 0 0 0 0 0 0 0 0 0 0 0 0 0 0.25 0"/>
<feBlend mode="normal" in2="shape" result="effect1_innerShadow_37_516"/>
</filter>
<filter id="filter1_i_37_516" x="13.9939" y="29.5635" width="17.8822" height="16.9725" filterUnits="userSpaceOnUse" color-interpolation-filters="sRGB">
<feFlood flood-opacity="0" result="BackgroundImageFix"/>
<feBlend mode="normal" in="SourceGraphic" in2="BackgroundImageFix" result="shape"/>
<feColorMatrix in="SourceAlpha" type="matrix" values="0 0 0 0 0 0 0 0 0 0 0 0 0 0 0 0 0 0 127 0" result="hardAlpha"/>
<feOffset dy="4"/>
<feGaussianBlur stdDeviation="2"/>
<feComposite in2="hardAlpha" operator="arithmetic" k2="-1" k3="1"/>
<feColorMatrix type="matrix" values="0 0 0 0 0 0 0 0 0 0 0 0 0 0 0 0 0 0 0.25 0"/>
<feBlend mode="normal" in2="shape" result="effect1_innerShadow_37_516"/>
</filter>
</defs>
</svg>
