<svg width="60" height="60" viewBox="0 0 60 60" fill="none" xmlns="http://www.w3.org/2000/svg">
<g filter="url(#filter0_i_32_446)">
<path d="M30.1308 31.3706C33.0092 19.6405 29.7642 7.86343 22.883 5.06573C16.0018 2.26803 8.09006 9.50915 5.21171 21.2392C2.33336 32.9693 5.57834 44.7464 12.4596 47.5441C19.3408 50.3418 27.2525 43.1007 30.1308 31.3706Z" fill="#FFFCF9"/>
</g>
<path d="M10.0431 23.2051C12.5756 12.8849 19.0046 6.04109 25.1997 6.45088C24.4823 5.87117 23.7086 5.40414 22.882 5.06806C16.001 2.27031 8.08945 9.51084 5.21106 21.2405C2.33267 32.9701 5.57731 44.7467 12.4582 47.5445C13.2849 47.8805 14.1265 48.0704 14.9725 48.1263C9.71861 43.881 7.51051 33.5254 10.0431 23.2051Z" fill="#754E29"/>
<path d="M12.8756 47.4785C12.4092 47.4785 11.9606 47.1457 11.7395 46.5715C9.19646 39.966 10.2754 34.8594 11.6287 31.7386C13.0825 28.3857 15.1452 26.6018 15.2322 26.5274C15.2365 26.5237 15.2409 26.5199 15.2454 26.5163C19.4114 23.0576 21.8091 19.2877 22.3719 15.3113C22.9559 11.1852 21.3317 8.3031 21.3151 8.2744C20.8987 7.55071 21.0168 6.52958 21.5791 5.99341C22.1412 5.4574 22.9346 5.60938 23.3511 6.33308C23.445 6.49631 25.6431 10.3948 24.8644 15.8957C24.1715 20.7913 21.4003 25.284 16.628 29.249C16.3156 29.5215 10.1438 35.0828 14.0094 45.1233C14.3201 45.9304 14.0638 46.9086 13.4368 47.3084C13.2564 47.4239 13.0646 47.4785 12.8756 47.4785Z" fill="#754E29"/>
<path d="M17.6149 43.8767C18.6643 43.8767 19.5151 42.7815 19.5151 41.4306C19.5151 40.0797 18.6643 38.9846 17.6149 38.9846C16.5654 38.9846 15.7146 40.0797 15.7146 41.4306C15.7146 42.7815 16.5654 43.8767 17.6149 43.8767Z" fill="#754E29"/>
<g filter="url(#filter1_i_32_446)">
<path d="M53.3311 45.538C57.0141 37.5508 53.3383 25.9863 45.1209 19.7079C36.9034 13.4296 27.2562 14.8149 23.5731 22.8021C19.89 30.7893 23.5658 42.3538 31.7833 48.6321C40.0007 54.9105 49.648 53.5252 53.3311 45.538Z" fill="#FFFCF9"/>
</g>
<path d="M34.371 43.0208C27.1405 37.4969 23.427 27.8809 25.1474 20.2092C24.5455 20.9765 24.0161 21.8397 23.5736 22.7994C19.8906 30.787 23.5669 42.3517 31.7846 48.63C40.0024 54.9083 49.65 53.5225 53.333 45.535C53.7755 44.5753 54.1106 43.5636 54.3456 42.5161C49.938 48.1346 41.6015 48.5447 34.371 43.0208Z" fill="#754E29"/>
<path d="M48.9356 46.7621C45.2961 46.7623 42.7743 44.8367 41.1874 42.9763C38.982 40.3909 38.1021 37.3992 38.0656 37.2732C38.0637 37.2668 38.0619 37.2605 38.0602 37.2541C36.401 31.2768 34.1098 27.4218 31.2504 25.7956C28.2858 24.11 25.7423 25.4397 25.6354 25.4969C24.9933 25.854 24.251 25.4716 23.9735 24.6449C23.6961 23.8181 23.9952 22.8565 24.6373 22.4992C24.7825 22.4187 28.2318 20.5511 32.2158 22.7795C35.7615 24.7626 38.5293 29.2587 40.4423 36.1429C40.5774 36.5966 43.3798 45.5983 51.8547 43.0391C52.5366 42.8333 53.2177 43.3775 53.3774 44.2543C53.5373 45.1309 53.1147 46.0086 52.4335 46.2143C51.1684 46.5961 50.0036 46.7621 48.9356 46.7621Z" fill="#754E29"/>
<path d="M46.8876 31.8341C47.9371 31.8341 48.7878 30.7389 48.7878 29.388C48.7878 28.0371 47.9371 26.942 46.8876 26.942C45.8381 26.942 44.9873 28.0371 44.9873 29.388C44.9873 30.7389 45.8381 31.8341 46.8876 31.8341Z" fill="#754E29"/>
<path d="M50.2438 39.109C51.2933 39.109 52.144 38.0138 52.144 36.6629C52.144 35.312 51.2933 34.2169 50.2438 34.2169C49.1943 34.2169 48.3435 35.312 48.3435 36.6629C48.3435 38.0138 49.1943 39.109 50.2438 39.109Z" fill="#754E29"/>
<defs>
<filter id="filter0_i_32_446" x="4.16211" y="4.46497" width="27.0183" height="47.6798" filterUnits="userSpaceOnUse" color-interpolation-filters="sRGB">
<feFlood flood-opacity="0" result="BackgroundImageFix"/>
<feBlend mode="normal" in="SourceGraphic" in2="BackgroundImageFix" result="shape"/>
<feColorMatrix in="SourceAlpha" type="matrix" values="0 0 0 0 0 0 0 0 0 0 0 0 0 0 0 0 0 0 127 0" result="hardAlpha"/>
<feOffset dy="4"/>
<feGaussianBlur stdDeviation="2"/>
<feComposite in2="hardAlpha" operator="arithmetic" k2="-1" k3="1"/>
<feColorMatrix type="matrix" values="0 0 0 0 0 0 0 0 0 0 0 0 0 0 0 0 0 0 0.25 0"/>
<feBlend mode="normal" in2="shape" result="effect1_innerShadow_32_446"/>
</filter>
<filter id="filter1_i_32_446" x="22.1428" y="15.774" width="32.6184" height="40.7919" filterUnits="userSpaceOnUse" color-interpolation-filters="sRGB">
<feFlood flood-opacity="0" result="BackgroundImageFix"/>
<feBlend mode="normal" in="SourceGraphic" in2="BackgroundImageFix" result="shape"/>
<feColorMatrix in="SourceAlpha" type="matrix" values="0 0 0 0 0 0 0 0 0 0 0 0 0 0 0 0 0 0 127 0" result="hardAlpha"/>
<feOffset dy="4"/>
<feGaussianBlur stdDeviation="2"/>
<feComposite in2="hardAlpha" operator="arithmetic" k2="-1" k3="1"/>
<feColorMatrix type="matrix" values="0 0 0 0 0 0 0 0 0 0 0 0 0 0 0 0 0 0 0.25 0"/>
<feBlend mode="normal" in2="shape" result="effect1_innerShadow_32_446"/>
</filter>
</defs>
</svg>
